<svg width="1530" height="500" viewBox="0 0 1530 500" fill="none" xmlns="http://www.w3.org/2000/svg">
<path d="M418.327 383.003H409.938V343.477H398.353V420.616L375.143 420.626C371.459 420.767 368.55 419.831 366.502 417.863C364.358 415.81 363.231 412.63 363.231 408.694V355.973H388.419V346.044H351.666L351.696 410.561C351.696 421.708 360.775 430.777 371.902 430.777C371.902 430.777 409.41 430.762 409.923 430.762C409.923 418.82 409.923 429.982 409.938 393.279H418.327V430.777H429.902V343.477H418.327V383.003Z" fill="#525861"/>
<path d="M1113.18 366.058H1086.93C1084.1 366.058 1081.79 363.818 1081.79 361.08C1081.79 358.328 1084.1 356.093 1086.89 356.093H1113.18C1115.99 356.093 1118.28 358.328 1118.28 361.08C1118.28 363.818 1115.99 366.058 1113.18 366.058ZM1113.18 345.927H1086.89C1078.49 345.927 1071.63 352.731 1071.63 361.08C1071.63 369.44 1078.5 376.229 1086.93 376.229H1113.18C1121.58 376.229 1128.45 369.44 1128.45 361.08C1128.45 352.731 1121.58 345.927 1113.18 345.927Z" fill="#525861"/>
<path d="M1094.96 411.409H1108.22V393.196H1128.5V382.874H1071.48V393.196H1094.96V411.409Z" fill="#525861"/>
<path d="M1138.29 343.416H1138.07V400.047H1124.15V410.203H1138.07V420.626H1089.02C1085.27 420.626 1082.74 417.687 1082.74 413.288V400.047H1071.4V413.645C1071.4 423.092 1079.17 430.776 1088.71 430.776L1149.64 430.807V343.416H1138.29Z" fill="#525861"/>
<path d="M627.023 366.053V361.035H682.215V366.33H627.023V366.053ZM624.965 376.138H684.274C689.457 376.138 693.599 372.082 693.725 366.888C693.725 366.888 693.75 343.945 693.75 343.427H682.215V351.036H626.872V343.427H615.504V366.445V366.566V366.672C615.504 371.891 619.746 376.138 624.965 376.138Z" fill="#525861"/>
<path d="M614.433 393.236H648.74V400.095H615.349V410.251H682.387V423.849V431H693.907V407.417C693.907 401.117 689.171 400.206 687.133 400.095H660.259V393.236H694.818V382.999H614.433V393.236Z" fill="#525861"/>
<path d="M842.328 383.19H816.104C813.316 383.19 810.975 381.308 810.975 379.088C810.975 376.879 813.316 374.992 816.089 374.992H842.328C845.106 374.992 847.446 376.879 847.446 379.088C847.446 381.308 845.106 383.19 842.328 383.19ZM842.328 364.831H816.089C807.644 364.831 800.81 371.238 800.81 379.088C800.81 386.949 807.669 393.351 816.104 393.351H842.328C850.748 393.351 857.602 386.949 857.602 379.088C857.602 371.238 850.748 364.831 842.328 364.831Z" fill="#525861"/>
<path d="M858.63 350.866H835.47V343.403H823.13V350.866H800.594V360.977H858.63V350.866Z" fill="#525861"/>
<path d="M878.88 343.428H867.522V393.235H878.88V376.391H891.522V366.301H878.88V343.428Z" fill="#525861"/>
<path d="M872.133 400.136C872.133 400.136 801.099 400.141 800.59 400.141V410.296C800.948 410.296 867.362 410.276 867.362 410.276V430.93H878.882V407.463C878.882 401.142 874.156 400.241 872.133 400.136Z" fill="#525861"/>
<path d="M1021.3 357.271L1021.48 357.079L1021.73 357.271C1036.57 372.877 1058.78 371.241 1060.3 371.115V362.107C1034.17 361.438 1029.12 345.213 1028.56 343.381H1014.45C1013.88 345.213 1008.23 361.438 982.089 362.107V371.115C983.619 371.241 1006.45 372.877 1021.3 357.271Z" fill="#525861"/>
<path d="M981.048 386.05H1015.11V393.196H981.969V402.627C982.477 402.627 1044.46 402.607 1044.46 402.607C1046.16 402.657 1047.48 403.493 1047.48 404.545C1047.48 405.602 1046.16 406.925 1044.46 406.925H981.969V413.875C981.969 423.316 989.719 430.795 999.286 430.795H1060.29V420.644C1059.79 420.644 996.573 420.649 996.573 420.649C995.169 420.443 994.238 419.033 994.238 418.178C994.238 417.126 995.536 416.306 997.202 416.286C997.202 416.286 1057.52 416.321 1060.29 416.321V400.468L1060.27 400.504C1060.27 394.178 1055.48 393.282 1053.48 393.196H1027.92V386.05H1061.66V376.367H981.048V386.05Z" fill="#525861"/>
<path d="M593.076 412.943C593.076 418.429 588.531 420.703 582.925 420.703H547.294C541.703 420.703 537.159 418.429 537.159 412.943V411.408C537.159 405.933 541.703 403.321 547.294 403.321H582.925C588.531 403.321 593.076 405.933 593.076 411.408V412.943ZM593.443 343.403V355.944H582.457C582.321 352.678 581.385 350.373 579.583 348.718L579.568 348.682C577.585 346.926 574.596 346.045 570.665 346.045H568.099H525.896V355.995C526.359 355.995 562.427 355.975 569.352 355.975C569.599 356.01 570.499 356.201 570.238 357.248L570.263 357.223C569.09 362.145 562.301 380.544 525.896 380.544V390.709C559.508 389.481 573.549 377.675 579.311 366.327H593.443V373.105H576.926V382.944V382.964L593.443 382.944L593.438 395.289C591.244 394.041 587.912 393.291 584.802 393.236V393.221H544.939V393.256C534.265 393.643 525.745 400.764 525.745 411.192V413.155C525.745 423.597 534.265 430.371 544.939 430.779V430.824H584.802V430.794C595.708 430.587 604.489 423.743 604.489 413.155C604.489 413.155 604.504 346.05 604.504 343.403H593.443Z" fill="#525861"/>
<path d="M960.895 430.76H972.233V343.4H960.895V430.76Z" fill="#525861"/>
<path d="M931.39 346.05L931.033 346.045H900.994H894.054V356.156H930.092C931.285 356.327 931.954 356.654 932.291 356.941C933.076 357.56 933.217 358.893 933.217 359.89V372.34C933.217 385.581 930.278 395.953 924.476 403.19C921.426 407.005 917.244 410.251 912.015 412.943C910.173 413.854 906.847 415.379 902.524 416.823C901.562 417.125 900.631 417.452 899.62 417.719C899.398 417.784 899.192 417.865 898.976 417.92C897.4 418.363 895.765 418.786 894.039 419.158V430.008C900.148 428.328 909.151 425.731 911.778 424.452C920.565 420.915 927.581 416.043 932.699 409.923C940.519 400.764 944.495 388.173 944.495 372.511V357.494C944.495 353.765 943.378 350.917 941.219 349.014C939.08 347.107 935.759 346.111 931.39 346.05Z" fill="#525861"/>
<path d="M782.532 343.48H771.188V420.765H764.027H761.204H760.957V410.227C760.942 403.252 760.942 391.687 760.947 372.513V357.496C760.947 353.766 759.835 350.918 757.661 349.016C755.522 347.108 752.215 346.107 747.832 346.052V346.041H747.485H740.746H717.42H710.501H704.456V356.187H735.512H746.639C747.767 356.353 748.416 356.655 748.733 356.942C749.518 357.561 749.669 358.895 749.669 359.891V365.965L749.588 369.091V420.508V420.765H731.829V383.242H721.094V420.765H704.341V430.78H782.532V393.237H795.163V382.885H782.532V343.48Z" fill="#525861"/>
<path d="M516.449 357.497C516.449 353.768 515.352 350.914 513.173 349.017C511.034 347.11 507.718 346.108 503.35 346.053V346.043H503.008H496.239H472.938H466.013H440.458V355.907H492.137V355.891H501.961C503.184 356.047 503.823 356.37 504.185 356.656C504.965 357.27 505.106 358.584 505.106 359.6L505.096 382.921H438.259V393.238H470.366V430.766H482.127V393.238H516.424C516.424 392.876 516.449 357.497 516.449 357.497Z" fill="#525861"/>
<path d="M389.336 139.587L378.828 175.207H455.383C514.959 175.207 502.976 214.974 500.556 230.993C495.689 263.232 477.064 328.65 570.367 329.48C595.993 329.692 622.595 322.631 643.45 306.25C664.909 289.396 669.947 265.084 669.982 265.013L681.703 225.276H600.316H600.211C600.211 225.276 589.879 260.68 589.637 261.485H626.692C626.692 261.485 621.755 293.201 579.949 293.201C572.129 293.201 529.926 294.876 539.749 243.071C543.77 221.824 551.455 188.956 537.681 165.746L537.696 165.741C537.535 165.434 527.455 139.662 471.845 139.587H389.336Z" fill="url(#paint0_linear_72_164)"/>
<path d="M797.069 94.6359C792.912 108.742 802.147 120.247 817.683 120.247C833.223 120.247 849.232 108.742 853.399 94.6359C857.561 80.4893 848.311 69 832.79 69C817.25 69 801.236 80.4893 797.069 94.6359Z" fill="url(#paint1_linear_72_164)"/>
<path d="M1052.31 139.255C1051.23 142.909 1042.63 172.128 1041.56 175.751C1044.81 175.751 1080.79 175.741 1088.88 175.741C1088.48 177.115 1053.75 294.822 1053.75 294.822C1053.09 297.011 1047.19 321.952 1027.75 317.428C1021.69 316.009 1015.3 310.976 1013.24 307.514C1013.24 307.514 1013.32 307.71 1013.49 308.088C1019.56 319.119 1030.89 328.646 1051.35 328.676C1073.77 328.676 1095.05 313.518 1104.19 282.547L1135.67 175.751H1183.4C1184.47 172.128 1193.1 142.909 1194.16 139.255H1052.31Z" fill="url(#paint2_linear_72_164)"/>
<path d="M372.815 195.59L335 323.985H403.05C425.742 323.985 435.304 323.19 444.076 321.887C460.583 319.471 477.281 313.784 492.635 304.59C486.656 293.181 483.622 274.485 488.498 252.362C488.498 252.362 476.626 289.633 413.04 288.395C406.191 288.249 398.315 288.249 392.432 288.269L419.738 195.59H372.815Z" fill="url(#paint3_linear_72_164)"/>
<path d="M545.854 159.043C552.889 169.792 554.978 183.556 555.154 194.326C555.32 202.741 553.961 210.919 553.961 210.919C569.466 166.109 624.638 151.751 636.993 149.587C700.479 138.47 716.835 167.95 722.728 179.45C708.34 142.214 662.861 130.579 632.384 130.579C580.115 130.579 545.854 159.043 545.854 159.043Z" fill="url(#paint4_linear_72_164)"/>
<path d="M806.254 136.351C786.229 142.722 771.479 158.092 764.841 179.968L731.002 294.645C728.788 302.053 725.21 316.26 717.661 315.123C711.375 314.177 707.319 309.798 704.757 305.063C704.757 305.063 709.563 327.458 736.593 327.458C765.465 327.206 775.993 300.896 781.443 282.361L815.297 167.669C819.243 154.242 834.356 136.089 850.651 142.179C853.007 143.085 857.36 145.802 861.416 153.9C861.416 153.9 854.884 132.607 827.854 132.602C821.749 132.602 814.608 133.689 806.254 136.351Z" fill="url(#paint5_linear_72_164)"/>
<path d="M649.374 147.881C662.141 154.101 677.219 167.699 682.966 197.814C682.966 197.814 698.195 286.845 704.782 305.103C705.351 306.054 705.915 306.94 706.448 307.76C709 311.358 712.608 314.353 717.661 315.123C725.21 316.26 728.788 302.053 731.002 294.645L740.212 263.458L728.461 200.164C727.328 193.787 725.778 187.668 724.057 182.731C723.554 181.352 722.955 179.873 722.23 178.333C722.386 178.7 722.567 179.077 722.729 179.45C717.761 169.722 705.255 147.151 663.108 147.151C658.84 147.151 654.27 147.382 649.374 147.881ZM704.782 305.103C704.772 305.093 704.762 305.078 704.757 305.063L704.782 305.103Z" fill="url(#paint6_linear_72_164)"/>
<path d="M818.766 159.546C820.824 170.703 840.834 278.642 842.026 284.691C843.154 290.302 844.291 299.945 848.669 306.517C863.853 324.373 886.132 320.825 898.799 316.648C894.048 310.679 890.651 303.327 888.789 293.926C888.789 293.926 867.023 175.273 864.824 164.906C864.487 163.21 863.425 158.6 861.407 153.869C861.407 153.874 861.417 153.9 861.417 153.9C857.361 145.802 853.007 143.085 850.652 142.179C848.423 141.348 846.213 140.966 844.06 140.966C833.481 140.966 824.07 150.06 818.766 159.546Z" fill="url(#paint7_linear_72_164)"/>
<path d="M960.628 134.438C944.443 135.898 921.399 143.245 907.257 157.603C905.249 159.657 876.443 187.547 892.507 218.2C898.798 230.188 924.132 262.361 924.132 262.361C926.743 265.929 935.349 276.523 928.792 290.75C926.039 296.688 919.738 305.873 908.163 312.747C904.399 314.866 869.568 331.373 848.537 306.361C848.537 306.361 857.299 330.568 890.927 330.568C937.06 330.568 964.05 305.515 975.192 285.893C980.869 275.617 985.187 261.521 976.682 245.24C968.705 229.987 951.725 208.08 944.987 199.56C938.862 191.835 935.586 183.033 939.612 173.562C942.883 163.688 951.292 154.322 962.767 147.629L962.731 147.664C1008.84 122.773 1024.86 158.434 1024.86 158.434C1017.66 135.229 989.374 133.684 981.236 133.729L981.302 133.684C980.119 133.679 978.946 133.669 977.754 133.669C973.129 133.669 968.146 133.779 960.628 134.438Z" fill="url(#paint8_linear_72_164)"/>
<path d="M967.885 145.057C976.486 150.432 982.907 161.126 987.437 181.639L1008.05 292.29C1009.53 299.109 1011.32 304.026 1013.32 307.624C1015.46 311.091 1021.77 316.023 1027.75 317.427C1041.68 320.683 1048.66 308.771 1051.74 300.971C1052.42 299.109 1053.03 297.212 1053.59 295.299C1053.59 295.299 1036.65 186.646 1024.83 158.353C1024.36 157.351 1015.4 138.852 992.696 138.852C985.761 138.852 977.538 140.578 967.885 145.057Z" fill="url(#paint9_linear_72_164)"/>
<defs>
<linearGradient id="paint0_linear_72_164" x1="530.264" y1="40.2012" x2="530.264" y2="287.835" gradientUnits="userSpaceOnUse">
<stop stop-color="#0D8AD5"/>
<stop offset="0.151156" stop-color="#47C4F3"/>
<stop offset="0.370789" stop-color="#47C4F3"/>
<stop offset="0.615723" stop-color="#47C4F3"/>
<stop offset="1" stop-color="#1B458F"/>
</linearGradient>
<linearGradient id="paint1_linear_72_164" x1="807.279" y1="61.7201" x2="829.455" y2="100.151" gradientUnits="userSpaceOnUse">
<stop stop-color="#0D8AD5"/>
<stop offset="0.151156" stop-color="#47C4F3"/>
<stop offset="0.370789" stop-color="#47C4F3"/>
<stop offset="0.615723" stop-color="#47C4F3"/>
<stop offset="1" stop-color="#1B458F"/>
</linearGradient>
<linearGradient id="paint2_linear_72_164" x1="1103.7" y1="40.1995" x2="1103.7" y2="287.833" gradientUnits="userSpaceOnUse">
<stop stop-color="#0D8AD5"/>
<stop offset="0.151156" stop-color="#47C4F3"/>
<stop offset="0.370789" stop-color="#47C4F3"/>
<stop offset="0.615723" stop-color="#47C4F3"/>
<stop offset="1" stop-color="#1B458F"/>
</linearGradient>
<linearGradient id="paint3_linear_72_164" x1="413.818" y1="40.1995" x2="413.818" y2="287.833" gradientUnits="userSpaceOnUse">
<stop stop-color="#0D8AD5"/>
<stop offset="0.151156" stop-color="#47C4F3"/>
<stop offset="0.370789" stop-color="#47C4F3"/>
<stop offset="0.615723" stop-color="#47C4F3"/>
<stop offset="1" stop-color="#1B458F"/>
</linearGradient>
<linearGradient id="paint4_linear_72_164" x1="634.291" y1="40.199" x2="634.291" y2="287.841" gradientUnits="userSpaceOnUse">
<stop stop-color="#0D8AD5"/>
<stop offset="0.151156" stop-color="#47C4F3"/>
<stop offset="0.370789" stop-color="#47C4F3"/>
<stop offset="0.615723" stop-color="#47C4F3"/>
<stop offset="1" stop-color="#1B458F"/>
</linearGradient>
<linearGradient id="paint5_linear_72_164" x1="783.087" y1="40.1967" x2="783.087" y2="287.833" gradientUnits="userSpaceOnUse">
<stop stop-color="#0D8AD5"/>
<stop offset="0.151156" stop-color="#47C4F3"/>
<stop offset="0.370789" stop-color="#47C4F3"/>
<stop offset="0.615723" stop-color="#47C4F3"/>
<stop offset="1" stop-color="#1B458F"/>
</linearGradient>
<linearGradient id="paint6_linear_72_164" x1="694.793" y1="328.026" x2="694.793" y2="159.635" gradientUnits="userSpaceOnUse">
<stop stop-color="#DEDDDE"/>
<stop offset="0.100006" stop-color="#DEDDDE"/>
<stop offset="0.626469" stop-color="#DEDDDE"/>
<stop offset="1" stop-color="#7B7979"/>
</linearGradient>
<linearGradient id="paint7_linear_72_164" x1="858.783" y1="328.026" x2="858.783" y2="159.634" gradientUnits="userSpaceOnUse">
<stop stop-color="#DEDDDE"/>
<stop offset="0.100006" stop-color="#DEDDDE"/>
<stop offset="0.626469" stop-color="#DEDDDE"/>
<stop offset="1" stop-color="#7B7979"/>
</linearGradient>
<linearGradient id="paint8_linear_72_164" x1="936.7" y1="40.199" x2="936.7" y2="287.829" gradientUnits="userSpaceOnUse">
<stop stop-color="#0D8AD5"/>
<stop offset="0.151156" stop-color="#47C4F3"/>
<stop offset="0.370789" stop-color="#47C4F3"/>
<stop offset="0.615723" stop-color="#47C4F3"/>
<stop offset="1" stop-color="#1B458F"/>
</linearGradient>
<linearGradient id="paint9_linear_72_164" x1="1010.74" y1="328.026" x2="1010.74" y2="159.633" gradientUnits="userSpaceOnUse">
<stop stop-color="#DEDDDE"/>
<stop offset="0.100006" stop-color="#DEDDDE"/>
<stop offset="0.626469" stop-color="#DEDDDE"/>
<stop offset="1" stop-color="#7B7979"/>
</linearGradient>
</defs>
</svg>
