<svg width="1530" height="500" viewBox="0 0 1530 500" fill="none" xmlns="http://www.w3.org/2000/svg">
<path d="M194.636 297.792C187.297 297.792 180.214 296.896 173.388 295.104C166.646 293.227 161.142 290.837 156.876 287.936L165.196 269.248C169.206 271.808 173.814 273.941 179.02 275.648C184.31 277.269 189.558 278.08 194.764 278.08C198.262 278.08 201.078 277.781 203.212 277.184C205.345 276.501 206.881 275.648 207.82 274.624C208.844 273.515 209.356 272.235 209.356 270.784C209.356 268.736 208.417 267.115 206.54 265.92C204.662 264.725 202.23 263.744 199.244 262.976C196.257 262.208 192.929 261.44 189.26 260.672C185.676 259.904 182.049 258.923 178.38 257.728C174.796 256.533 171.51 254.997 168.524 253.12C165.537 251.157 163.105 248.64 161.228 245.568C159.35 242.411 158.411 238.443 158.411 233.664C158.411 228.288 159.862 223.424 162.764 219.072C165.75 214.72 170.188 211.221 176.076 208.576C181.964 205.931 189.302 204.608 198.092 204.608C203.98 204.608 209.74 205.291 215.372 206.656C221.089 207.936 226.166 209.856 230.604 212.416L222.796 231.232C218.529 228.928 214.305 227.221 210.124 226.112C205.942 224.917 201.889 224.32 197.964 224.32C194.465 224.32 191.649 224.704 189.516 225.472C187.382 226.155 185.846 227.093 184.908 228.288C183.969 229.483 183.5 230.848 183.5 232.384C183.5 234.347 184.396 235.925 186.188 237.12C188.065 238.229 190.497 239.168 193.484 239.936C196.556 240.619 199.884 241.344 203.468 242.112C207.137 242.88 210.764 243.861 214.348 245.056C218.017 246.165 221.345 247.701 224.332 249.664C227.318 251.541 229.708 254.059 231.5 257.216C233.377 260.288 234.316 264.171 234.316 268.864C234.316 274.069 232.822 278.891 229.836 283.328C226.934 287.68 222.54 291.179 216.652 293.824C210.849 296.469 203.51 297.792 194.636 297.792ZM281.223 297.152C273.031 297.152 265.863 295.616 259.719 292.544C253.66 289.387 248.924 285.12 245.51 279.744C242.183 274.283 240.519 268.096 240.519 261.184C240.519 254.272 242.14 248.128 245.383 242.752C248.711 237.291 253.276 233.067 259.079 230.08C264.881 227.008 271.409 225.472 278.663 225.472C285.489 225.472 291.719 226.88 297.351 229.696C302.983 232.427 307.463 236.48 310.791 241.856C314.119 247.232 315.783 253.76 315.783 261.44C315.783 262.293 315.74 263.275 315.655 264.384C315.569 265.493 315.484 266.517 315.399 267.456H260.487V254.656H302.471L293.255 258.24C293.34 255.083 292.743 252.352 291.463 250.048C290.268 247.744 288.561 245.952 286.343 244.672C284.209 243.392 281.692 242.752 278.791 242.752C275.889 242.752 273.329 243.392 271.111 244.672C268.977 245.952 267.313 247.787 266.119 250.176C264.924 252.48 264.327 255.211 264.327 258.368V262.08C264.327 265.493 265.009 268.437 266.375 270.912C267.825 273.387 269.873 275.307 272.519 276.672C275.164 277.952 278.321 278.592 281.991 278.592C285.404 278.592 288.305 278.123 290.695 277.184C293.169 276.16 295.601 274.624 297.991 272.576L310.791 285.888C307.463 289.557 303.367 292.373 298.503 294.336C293.639 296.213 287.879 297.152 281.223 297.152ZM363.348 297.152C355.156 297.152 347.988 295.616 341.844 292.544C335.785 289.387 331.049 285.12 327.635 279.744C324.308 274.283 322.644 268.096 322.644 261.184C322.644 254.272 324.265 248.128 327.508 242.752C330.836 237.291 335.401 233.067 341.204 230.08C347.006 227.008 353.534 225.472 360.788 225.472C367.614 225.472 373.844 226.88 379.476 229.696C385.108 232.427 389.588 236.48 392.916 241.856C396.244 247.232 397.908 253.76 397.908 261.44C397.908 262.293 397.865 263.275 397.78 264.384C397.694 265.493 397.609 266.517 397.524 267.456H342.612V254.656H384.596L375.38 258.24C375.465 255.083 374.868 252.352 373.588 250.048C372.393 247.744 370.686 245.952 368.468 244.672C366.334 243.392 363.817 242.752 360.916 242.752C358.014 242.752 355.454 243.392 353.236 244.672C351.102 245.952 349.438 247.787 348.244 250.176C347.049 252.48 346.452 255.211 346.452 258.368V262.08C346.452 265.493 347.134 268.437 348.5 270.912C349.95 273.387 351.998 275.307 354.644 276.672C357.289 277.952 360.446 278.592 364.116 278.592C367.529 278.592 370.43 278.123 372.82 277.184C375.294 276.16 377.726 274.624 380.116 272.576L392.916 285.888C389.588 289.557 385.492 292.373 380.628 294.336C375.764 296.213 370.004 297.152 363.348 297.152ZM429.345 283.2L429.985 254.144L458.273 226.624H487.073L455.713 259.008L443.297 268.992L429.345 283.2ZM409.121 296V201.024H433.441V296H409.121ZM460.065 296L438.817 269.376L453.921 250.688L489.505 296H460.065ZM496.871 296V226.624H521.191V296H496.871ZM509.031 218.944C504.593 218.944 501.009 217.707 498.279 215.232C495.548 212.757 494.183 209.685 494.183 206.016C494.183 202.347 495.548 199.275 498.279 196.8C501.009 194.325 504.593 193.088 509.031 193.088C513.468 193.088 517.052 194.283 519.783 196.672C522.513 198.976 523.879 201.963 523.879 205.632C523.879 209.472 522.513 212.672 519.783 215.232C517.137 217.707 513.553 218.944 509.031 218.944ZM582.18 225.472C587.556 225.472 592.42 226.581 596.771 228.8C601.124 230.933 604.537 234.261 607.012 238.784C609.572 243.307 610.852 249.152 610.852 256.32V296H586.532V260.288C586.532 255.339 585.508 251.755 583.46 249.536C581.497 247.232 578.724 246.08 575.14 246.08C572.58 246.08 570.233 246.677 568.1 247.872C565.966 248.981 564.302 250.731 563.108 253.12C561.913 255.509 561.316 258.624 561.316 262.464V296H536.996V226.624H560.164V246.336L555.684 240.576C558.329 235.541 561.956 231.787 566.564 229.312C571.172 226.752 576.377 225.472 582.18 225.472ZM660.916 321.984C654.26 321.984 647.902 321.216 641.844 319.68C635.87 318.144 630.75 315.883 626.484 312.896L635.316 295.872C638.217 298.176 641.801 299.968 646.068 301.248C650.42 302.613 654.644 303.296 658.74 303.296C665.31 303.296 670.046 301.845 672.948 298.944C675.849 296.128 677.3 291.989 677.3 286.528V278.336L678.58 258.88L678.452 239.296V226.624H701.62V283.328C701.62 296.469 698.078 306.197 690.996 312.512C683.913 318.827 673.886 321.984 660.916 321.984ZM656.692 292.416C650.548 292.416 644.873 291.051 639.668 288.32C634.548 285.504 630.409 281.621 627.252 276.672C624.18 271.637 622.644 265.707 622.644 258.88C622.644 252.053 624.18 246.165 627.252 241.216C630.409 236.181 634.548 232.299 639.668 229.568C644.873 226.837 650.548 225.472 656.692 225.472C662.58 225.472 667.614 226.667 671.796 229.056C675.977 231.36 679.134 234.987 681.268 239.936C683.486 244.885 684.596 251.2 684.596 258.88C684.596 266.56 683.486 272.875 681.268 277.824C679.134 282.773 675.977 286.443 671.796 288.832C667.614 291.221 662.58 292.416 656.692 292.416ZM662.452 273.088C665.353 273.088 667.913 272.491 670.132 271.296C672.436 270.101 674.228 268.437 675.508 266.304C676.873 264.171 677.556 261.696 677.556 258.88C677.556 256.064 676.873 253.589 675.508 251.456C674.228 249.323 672.436 247.701 670.132 246.592C667.913 245.397 665.353 244.8 662.452 244.8C659.55 244.8 656.948 245.397 654.644 246.592C652.34 247.701 650.505 249.323 649.14 251.456C647.86 253.589 647.22 256.064 647.22 258.88C647.22 261.696 647.86 264.171 649.14 266.304C650.505 268.437 652.34 270.101 654.644 271.296C656.948 272.491 659.55 273.088 662.452 273.088ZM755.648 296V206.4H780.992V296H755.648ZM843.055 225.472C848.431 225.472 853.295 226.581 857.646 228.8C861.999 230.933 865.412 234.261 867.887 238.784C870.447 243.307 871.727 249.152 871.727 256.32V296H847.407V260.288C847.407 255.339 846.383 251.755 844.335 249.536C842.372 247.232 839.599 246.08 836.015 246.08C833.455 246.08 831.108 246.677 828.975 247.872C826.841 248.981 825.177 250.731 823.983 253.12C822.788 255.509 822.191 258.624 822.191 262.464V296H797.871V226.624H821.039V246.336L816.559 240.576C819.204 235.541 822.831 231.787 827.439 229.312C832.047 226.752 837.252 225.472 843.055 225.472ZM905.074 296L876.529 226.624H901.49L924.274 284.608H911.729L935.666 226.624H958.834L930.162 296H905.074ZM999.598 297.152C991.406 297.152 984.238 295.616 978.094 292.544C972.035 289.387 967.299 285.12 963.885 279.744C960.558 274.283 958.894 268.096 958.894 261.184C958.894 254.272 960.515 248.128 963.758 242.752C967.086 237.291 971.651 233.067 977.454 230.08C983.256 227.008 989.784 225.472 997.038 225.472C1003.86 225.472 1010.09 226.88 1015.73 229.696C1021.36 232.427 1025.84 236.48 1029.17 241.856C1032.49 247.232 1034.16 253.76 1034.16 261.44C1034.16 262.293 1034.11 263.275 1034.03 264.384C1033.94 265.493 1033.86 266.517 1033.77 267.456H978.862V254.656H1020.85L1011.63 258.24C1011.71 255.083 1011.12 252.352 1009.84 250.048C1008.64 247.744 1006.94 245.952 1004.72 244.672C1002.58 243.392 1000.07 242.752 997.166 242.752C994.264 242.752 991.704 243.392 989.486 244.672C987.352 245.952 985.688 247.787 984.494 250.176C983.299 252.48 982.702 255.211 982.702 258.368V262.08C982.702 265.493 983.384 268.437 984.75 270.912C986.2 273.387 988.248 275.307 990.894 276.672C993.539 277.952 996.696 278.592 1000.37 278.592C1003.78 278.592 1006.68 278.123 1009.07 277.184C1011.54 276.16 1013.98 274.624 1016.37 272.576L1029.17 285.888C1025.84 289.557 1021.74 292.373 1016.88 294.336C1012.01 296.213 1006.25 297.152 999.598 297.152ZM1070.59 297.152C1064.7 297.152 1058.94 296.469 1053.31 295.104C1047.76 293.739 1043.28 292.032 1039.87 289.984L1047.16 273.344C1050.41 275.307 1054.2 276.885 1058.55 278.08C1062.91 279.189 1067.17 279.744 1071.35 279.744C1075.45 279.744 1078.27 279.317 1079.8 278.464C1081.42 277.611 1082.23 276.459 1082.23 275.008C1082.23 273.643 1081.47 272.661 1079.93 272.064C1078.48 271.381 1076.52 270.869 1074.04 270.528C1071.65 270.187 1069.01 269.803 1066.11 269.376C1063.21 268.949 1060.26 268.395 1057.27 267.712C1054.37 266.944 1051.69 265.835 1049.21 264.384C1046.82 262.848 1044.9 260.8 1043.45 258.24C1042 255.68 1041.27 252.437 1041.27 248.512C1041.27 244.075 1042.55 240.149 1045.11 236.736C1047.76 233.237 1051.6 230.507 1056.63 228.544C1061.67 226.496 1067.81 225.472 1075.07 225.472C1079.93 225.472 1084.84 225.984 1089.79 227.008C1094.82 227.947 1099.05 229.397 1102.46 231.36L1095.16 247.872C1091.75 245.909 1088.34 244.587 1084.92 243.904C1081.51 243.136 1078.27 242.752 1075.19 242.752C1071.1 242.752 1068.2 243.221 1066.49 244.16C1064.87 245.099 1064.06 246.251 1064.06 247.616C1064.06 248.981 1064.78 250.048 1066.23 250.816C1067.69 251.499 1069.61 252.053 1071.99 252.48C1074.47 252.821 1077.16 253.205 1080.06 253.632C1082.96 253.973 1085.86 254.528 1088.76 255.296C1091.75 256.064 1094.44 257.216 1096.83 258.752C1099.3 260.203 1101.26 262.208 1102.71 264.768C1104.17 267.243 1104.89 270.443 1104.89 274.368C1104.89 278.635 1103.57 282.475 1100.92 285.888C1098.36 289.301 1094.52 292.032 1089.4 294.08C1084.37 296.128 1078.1 297.152 1070.59 297.152ZM1146.35 297.152C1137.47 297.152 1130.56 294.976 1125.61 290.624C1120.66 286.187 1118.19 279.531 1118.19 270.656V211.136H1142.51V270.4C1142.51 272.875 1143.19 274.837 1144.55 276.288C1145.92 277.653 1147.67 278.336 1149.8 278.336C1152.7 278.336 1155.18 277.611 1157.23 276.16L1163.24 293.184C1161.19 294.549 1158.68 295.531 1155.69 296.128C1152.7 296.811 1149.59 297.152 1146.35 297.152ZM1108.07 247.36V229.184H1158.38V247.36H1108.07ZM1205.44 297.152C1197.84 297.152 1191.1 295.616 1185.21 292.544C1179.32 289.472 1174.67 285.248 1171.26 279.872C1167.93 274.411 1166.27 268.181 1166.27 261.184C1166.27 254.187 1167.93 248 1171.26 242.624C1174.67 237.248 1179.32 233.067 1185.21 230.08C1191.1 227.008 1197.84 225.472 1205.44 225.472C1213.03 225.472 1219.77 227.008 1225.66 230.08C1231.63 233.067 1236.28 237.248 1239.61 242.624C1242.94 248 1244.6 254.187 1244.6 261.184C1244.6 268.181 1242.94 274.411 1239.61 279.872C1236.28 285.248 1231.63 289.472 1225.66 292.544C1219.77 295.616 1213.03 297.152 1205.44 297.152ZM1205.44 277.824C1208.25 277.824 1210.73 277.184 1212.86 275.904C1215.08 274.624 1216.83 272.747 1218.11 270.272C1219.39 267.712 1220.03 264.683 1220.03 261.184C1220.03 257.685 1219.39 254.741 1218.11 252.352C1216.83 249.877 1215.08 248 1212.86 246.72C1210.73 245.44 1208.25 244.8 1205.44 244.8C1202.71 244.8 1200.23 245.44 1198.01 246.72C1195.88 248 1194.13 249.877 1192.76 252.352C1191.48 254.741 1190.84 257.685 1190.84 261.184C1190.84 264.683 1191.48 267.712 1192.76 270.272C1194.13 272.747 1195.88 274.624 1198.01 275.904C1200.23 277.184 1202.71 277.824 1205.44 277.824ZM1255.87 296V226.624H1279.04V246.848L1275.58 241.088C1277.63 235.883 1280.96 232 1285.57 229.44C1290.17 226.795 1295.76 225.472 1302.33 225.472V247.36C1301.23 247.189 1300.24 247.104 1299.39 247.104C1298.62 247.019 1297.77 246.976 1296.83 246.976C1291.88 246.976 1287.87 248.341 1284.8 251.072C1281.73 253.717 1280.19 258.069 1280.19 264.128V296H1255.87ZM1337.84 297.152C1331.95 297.152 1326.19 296.469 1320.56 295.104C1315.01 293.739 1310.53 292.032 1307.12 289.984L1314.41 273.344C1317.66 275.307 1321.45 276.885 1325.8 278.08C1330.16 279.189 1334.42 279.744 1338.6 279.744C1342.7 279.744 1345.52 279.317 1347.05 278.464C1348.67 277.611 1349.48 276.459 1349.48 275.008C1349.48 273.643 1348.72 272.661 1347.18 272.064C1345.73 271.381 1343.77 270.869 1341.29 270.528C1338.9 270.187 1336.26 269.803 1333.36 269.376C1330.46 268.949 1327.51 268.395 1324.52 267.712C1321.62 266.944 1318.94 265.835 1316.46 264.384C1314.07 262.848 1312.15 260.8 1310.7 258.24C1309.25 255.68 1308.52 252.437 1308.52 248.512C1308.52 244.075 1309.8 240.149 1312.36 236.736C1315.01 233.237 1318.85 230.507 1323.88 228.544C1328.92 226.496 1335.06 225.472 1342.32 225.472C1347.18 225.472 1352.09 225.984 1357.04 227.008C1362.07 227.947 1366.3 229.397 1369.71 231.36L1362.41 247.872C1359 245.909 1355.59 244.587 1352.17 243.904C1348.76 243.136 1345.52 242.752 1342.44 242.752C1338.35 242.752 1335.45 243.221 1333.74 244.16C1332.12 245.099 1331.31 246.251 1331.31 247.616C1331.31 248.981 1332.03 250.048 1333.48 250.816C1334.94 251.499 1336.86 252.053 1339.24 252.48C1341.72 252.821 1344.41 253.205 1347.31 253.632C1350.21 253.973 1353.11 254.528 1356.01 255.296C1359 256.064 1361.69 257.216 1364.08 258.752C1366.55 260.203 1368.51 262.208 1369.96 264.768C1371.42 267.243 1372.14 270.443 1372.14 274.368C1372.14 278.635 1370.82 282.475 1368.17 285.888C1365.61 289.301 1361.77 292.032 1356.65 294.08C1351.62 296.128 1345.35 297.152 1337.84 297.152Z" fill="#818081"/>
</svg>
