<svg width="1530" height="500" viewBox="0 0 1530 500" fill="none" xmlns="http://www.w3.org/2000/svg">
<g clip-path="url(#clip0_72_112)">
<path d="M483.667 345.397H538.687V142.363H483.667V345.397Z" fill="#332D2B"/>
<path d="M898.772 261.746H1077.85V220.094H898.772V188.106H1077.85V139.733H847.178V342.767H1081.14V295.047H898.772V261.746Z" fill="#332D2B"/>
<mask id="mask0_72_112" style="mask-type:luminance" maskUnits="userSpaceOnUse" x="-180" y="-695" width="1890" height="1890">
<path d="M-180 -695H1709.76V1194.76H-180V-695Z" fill="white"/>
</mask>
<g mask="url(#mask0_72_112)">
<path d="M691.215 256.365C683.59 256.365 677.417 250.192 677.417 242.567C677.417 234.94 683.59 228.751 691.215 228.751C698.841 228.751 705.031 234.94 705.031 242.567C705.031 250.192 698.841 256.365 691.215 256.365ZM761.629 269.508L729.189 241.649C728.705 221.089 711.879 204.576 691.215 204.576C689.573 204.576 687.947 204.68 686.357 204.887L613.522 142.359H565.797V345.403H620.819V215.608L653.259 243.465C653.726 264.025 670.534 280.557 691.215 280.557C692.875 280.557 694.501 280.453 696.091 280.245L768.909 342.756H816.651V139.731H761.629V269.508Z" fill="#332D2B"/>
<path d="M343.275 198.339L373.269 229.895L456.564 142.355H396.535L343.275 198.339Z" fill="#009CB9"/>
<path d="M203.315 142.356L299.944 243.872L203.315 345.386H263.383L329.98 275.428L396.535 345.386H456.564L263.383 142.356H203.315Z" fill="#332D2B"/>
<path d="M1104.73 345.387H1164.76L1218.02 289.403L1188.02 257.847L1104.73 345.387Z" fill="#009CB9"/>
<path d="M1357.98 142.356H1297.91L1231.31 212.316L1164.76 142.356H1104.73L1297.91 345.386H1357.98L1261.35 243.87L1357.98 142.356Z" fill="#332D2B"/>
<path d="M542.184 418.397C540.241 417.934 538.236 417.33 536.176 416.589C534.116 415.849 532.11 414.949 530.168 413.881C528.218 412.864 526.424 411.668 524.782 410.304C523.136 408.934 521.76 407.417 520.649 405.752C518.7 408.669 515.956 411.193 512.414 413.326C508.868 415.454 504.501 417.145 499.32 418.397L493.965 412.697C496.746 412.098 499.374 411.358 501.854 410.477C504.328 409.594 506.542 408.552 508.485 407.349C510.478 406.097 512.137 404.685 513.457 403.112C514.777 401.538 515.666 399.756 516.128 397.764H498.412V391.157H542.813V397.764H525.092C525.51 399.706 526.381 401.477 527.7 403.074C529.02 404.672 530.673 406.097 532.666 407.349C534.616 408.601 536.824 409.688 539.304 410.613C541.782 411.544 544.361 412.284 547.05 412.84L542.184 418.397ZM549.345 430.486H524.888V451.398H516.893V430.486H492.022V423.886H549.345V430.486Z" fill="#818081"/>
<path d="M624.94 426.527H617.087V389.213H624.94V426.527ZM624.94 451.75H617.087V435.557H582.069V429.025H622.991C624.285 429.025 624.94 429.679 624.94 430.975V451.75ZM605.897 422.98C604.467 422.24 603.041 421.42 601.628 420.518C600.209 419.612 598.835 418.632 597.489 417.564C594.849 415.386 592.857 413.141 591.519 410.823C591.099 412.032 590.427 413.252 589.501 414.505C588.576 415.757 587.467 417.009 586.164 418.254C584.919 419.464 583.524 420.612 582 421.697C580.471 422.789 578.916 423.745 577.344 424.577L571.156 419.297C576.487 416.8 580.489 413.764 583.179 410.198C585.861 406.634 587.231 402.6 587.281 398.109V390.535H595.688V397.966C595.639 400.052 595.985 402.069 596.731 404.012C597.471 405.961 598.489 407.769 599.784 409.434C601.129 411.1 602.739 412.592 604.615 413.912C606.489 415.233 608.563 416.288 610.832 417.077L605.897 422.98Z" fill="#818081"/>
<path d="M705.949 451.399H698.103V389.215H705.949V451.399ZM680.455 421.592C681.701 420.852 682.331 419.835 682.331 418.539C682.331 417.329 681.713 416.324 680.485 415.516C679.259 414.701 677.396 414.295 674.891 414.295C672.344 414.295 670.468 414.701 669.265 415.516C668.063 416.324 667.459 417.329 667.459 418.539C667.459 419.785 668.075 420.809 669.303 421.592C670.529 422.381 672.393 422.776 674.891 422.776C677.396 422.776 679.247 422.381 680.455 421.592ZM684.483 396.16H664.96V390.12H684.483V396.16ZM692.336 406.171H657.176V399.984H692.336V406.171ZM696.505 438.549C692.151 439.104 686.993 439.505 681.041 439.764C675.088 440.017 668.593 440.147 661.555 440.147H654.4V433.405L670.864 433.337V428.192C667.391 427.729 664.62 426.644 662.56 424.929C660.5 423.215 659.471 421.087 659.471 418.539C659.471 417.052 659.828 415.713 660.544 414.505C661.265 413.301 662.295 412.26 663.64 411.377C664.979 410.501 666.601 409.829 668.501 409.367C670.4 408.904 672.528 408.669 674.891 408.669C677.211 408.669 679.313 408.904 681.213 409.367C683.113 409.829 684.736 410.501 686.081 411.377C687.425 412.26 688.468 413.301 689.208 414.505C689.948 415.713 690.319 417.052 690.319 418.539C690.319 421.037 689.3 423.135 687.259 424.825C685.223 426.515 682.533 427.613 679.203 428.124V433.196C680.499 433.152 681.911 433.091 683.441 433.023C684.971 432.955 686.493 432.875 688.024 432.781C689.597 432.64 691.108 432.516 692.539 432.4C693.976 432.283 695.296 432.135 696.505 431.943V438.549Z" fill="#818081"/>
<path d="M781.963 451.398H774.184V389.214H781.963V412.629H790.512V419.649H781.963V451.398ZM764.871 438.476C761.817 436.39 759.023 433.924 756.5 431.08C753.971 428.229 752.015 425.274 750.627 422.216C750.116 423.745 749.376 425.312 748.407 426.909C747.432 428.508 746.297 430.068 745.001 431.597C743.7 433.128 742.3 434.608 740.795 436.045C739.289 437.482 737.748 438.753 736.175 439.869L729.784 434.725C735.527 431.11 739.728 426.768 742.392 421.697C745.057 416.626 746.415 411.008 746.457 404.845V391.509H754.655V405.265C754.655 411.426 755.963 416.788 758.584 421.352C761.2 425.91 765.24 429.864 770.705 433.196L764.871 438.476Z" fill="#818081"/>
<path d="M905.436 451.399H897.584V389.215H905.436V451.399ZM887.159 438.265C883.828 436.137 880.861 433.669 878.264 430.869C875.673 428.069 873.799 425.139 872.639 422.08C871.436 425.368 869.444 428.588 866.661 431.74C865.224 433.361 863.781 434.841 862.319 436.187C860.864 437.525 859.389 438.735 857.908 439.796L851.444 434.583C853.992 433.06 856.323 431.296 858.433 429.303C860.536 427.316 862.319 425.065 863.781 422.567C865.236 420.063 866.372 417.312 867.185 414.295C867.994 411.285 868.401 407.997 868.401 404.431V399.361H855.89V392.829H889.453V399.361H876.809V404.777C876.809 410.939 878.067 416.38 880.596 421.105C883.119 425.829 887.159 429.772 892.717 432.917L887.159 438.265Z" fill="#818081"/>
<path d="M985.268 426.181H977.625V389.215H985.268V426.181ZM972.272 426.181H964.703V406.306H953.859V399.564H964.703V390.189H972.272V426.181ZM985.268 451.75H977.416V435.212H941.423V428.612H983.319C984.62 428.612 985.268 429.26 985.268 430.555V451.75ZM961.575 419.858C960.971 420.044 960.139 420.217 959.071 420.377C958.004 420.537 956.849 420.692 955.597 420.826C954.345 420.969 953.037 421.098 951.675 421.209C950.305 421.326 949.023 421.382 947.82 421.382C947.443 421.382 946.716 421.395 945.629 421.42C944.537 421.444 943.44 421.475 942.329 421.524C941.169 421.524 940.128 421.537 939.203 421.556C938.271 421.58 937.789 421.568 937.74 421.524C937 421.524 936.5 421.382 936.248 421.105C935.995 420.826 935.865 420.321 935.865 419.574V391.089H943.649L943.576 414.572L948.164 414.505C948.997 414.505 950.028 414.474 951.255 414.4C952.483 414.332 953.723 414.226 954.975 414.09C956.269 413.949 957.509 413.801 958.688 413.635C959.873 413.475 960.835 413.301 961.575 413.117V419.858Z" fill="#818081"/>
<path d="M1061.97 426.249C1059.75 425.553 1057.52 424.59 1055.3 423.362C1053.08 422.135 1050.99 420.759 1049.05 419.23C1047.11 417.699 1045.38 416.083 1043.88 414.369C1042.37 412.654 1041.22 410.963 1040.43 409.293C1038.49 413.049 1035.76 416.374 1032.24 419.266C1028.71 422.159 1024.36 424.51 1019.18 426.317L1013.69 420.414C1016.88 419.489 1019.86 418.249 1022.61 416.694C1025.37 415.146 1027.74 413.37 1029.74 411.377C1031.82 409.293 1033.43 407.059 1034.57 404.671C1035.7 402.291 1036.26 399.755 1036.26 397.066V391.298H1044.74V397.066C1044.7 399.755 1045.31 402.334 1046.58 404.814C1047.86 407.294 1049.54 409.57 1051.62 411.654C1053.71 413.739 1056.09 415.559 1058.78 417.114C1061.46 418.662 1064.22 419.809 1067.04 420.55L1061.97 426.249ZM1069.27 443.755H1011.81V437.087H1069.27V443.755Z" fill="#818081"/>
<path d="M1004.27 99.3924C1004.23 101.058 1004.42 102.415 1004.84 103.458C1005.25 104.5 1005.83 105.32 1006.57 105.931C1007.31 106.536 1008.18 106.943 1009.19 107.152C1010.19 107.363 1011.28 107.462 1012.46 107.462C1013.48 107.462 1014.48 107.331 1015.47 107.066C1016.46 106.802 1017.34 106.382 1018.14 105.814C1018.94 105.247 1019.57 104.538 1020.05 103.686C1020.52 102.828 1020.75 101.816 1020.75 100.646C1020.75 99.5031 1020.55 98.5604 1020.13 97.8017C1019.71 97.0431 1019.06 96.3764 1018.17 95.8097C1017.28 95.2417 1016.16 94.7044 1014.81 94.1924C1013.47 93.6804 1011.87 93.0817 1010.01 92.3977C1008.61 91.9471 1007.23 91.4164 1005.86 90.8071C1004.49 90.2017 1003.27 89.4431 1002.19 88.5364C1001.11 87.6231 1000.25 86.5137 999.578 85.2044C998.918 83.8977 998.585 82.3004 998.585 80.4057C998.585 78.4684 998.992 76.7484 999.806 75.2311C1000.62 73.7137 1001.69 72.4364 1003.02 71.3937C1004.35 70.3524 1005.84 69.5684 1007.51 69.0311C1009.18 68.5071 1010.84 68.2364 1012.51 68.2364C1014.33 68.2364 1015.91 68.4031 1017.23 68.7231C1018.56 69.0444 1019.89 69.5684 1021.21 70.2831C1022.8 71.1164 1024.09 72.3324 1025.08 73.9231C1026.06 75.5151 1026.57 77.5631 1026.61 80.0604H1020.01C1019.94 78.8151 1019.69 77.7724 1019.28 76.9391C1018.86 76.1004 1018.32 75.4471 1017.66 74.9777C1016.99 74.5031 1016.25 74.1697 1015.41 73.9791C1014.58 73.7937 1013.7 73.6951 1012.8 73.6951C1010.6 73.6951 1008.78 74.2444 1007.34 75.3417C1005.9 76.4457 1005.18 77.9204 1005.18 79.7777C1005.18 81.1031 1005.43 82.1884 1005.94 83.0217C1006.46 83.8551 1007.18 84.5764 1008.11 85.1804C1009.03 85.7844 1010.15 86.3151 1011.43 86.7724C1012.72 87.2284 1014.16 87.7404 1015.75 88.3084C1017.23 88.8377 1018.66 89.3937 1020.05 89.9857C1021.43 90.5711 1022.66 91.3004 1023.74 92.1697C1024.82 93.0457 1025.69 94.1244 1026.36 95.4151C1027.02 96.7031 1027.35 98.3124 1027.35 100.244C1027.35 102.403 1026.95 104.327 1026.16 106.011C1025.36 107.702 1024.24 109.04 1022.8 110.022C1021.17 111.236 1019.51 112.02 1017.83 112.383C1016.14 112.742 1014.18 112.92 1011.95 112.92C1007.47 112.92 1003.96 111.755 1001.4 109.423C998.838 107.098 997.544 103.747 997.506 99.3924H1004.27Z" fill="#818081"/>
<path d="M1049.92 112.069H1043.61V68.9211H1049.92V112.069Z" fill="#818081"/>
<path d="M1100.51 110.422C1100.51 111.026 1100.42 111.434 1100.23 111.643C1100.04 111.852 1099.64 111.958 1099.03 111.958H1094.49C1093.95 111.958 1093.56 111.84 1093.29 111.612C1093.03 111.384 1092.82 111.063 1092.67 110.651L1076.24 82.1642L1074.36 77.9576L1074.53 82.3362V112.07H1068.22V70.6296C1068.22 70.0189 1068.32 69.6122 1068.5 69.4016C1068.7 69.1989 1069.1 69.0936 1069.7 69.0936H1074.08C1074.61 69.0936 1075.01 69.2042 1075.27 69.4322C1075.54 69.6602 1075.75 69.9816 1075.9 70.4016L1092.5 98.8802L1094.37 103.088L1094.2 98.7082V69.0936H1100.51V110.422Z" fill="#818081"/>
<path d="M1150.03 100.016C1149.8 102.137 1149.22 104.007 1148.29 105.617C1147.36 107.227 1146.21 108.572 1144.82 109.651C1143.44 110.731 1141.87 111.545 1140.1 112.1C1138.34 112.649 1136.49 112.92 1134.56 112.92C1131.38 112.92 1128.64 112.304 1126.35 111.076C1124.05 109.841 1122.17 108.195 1120.69 106.128C1119.21 104.063 1118.12 101.687 1117.42 98.9919C1116.72 96.3026 1116.37 93.5013 1116.37 90.5773C1116.37 87.6973 1116.72 84.9146 1117.42 82.2266C1118.12 79.5306 1119.21 77.1439 1120.69 75.0586C1122.17 72.9799 1124.05 71.3013 1126.35 70.0306C1128.64 68.7599 1131.38 68.1253 1134.56 68.1253C1136.38 68.1253 1138.16 68.3586 1139.9 68.8346C1141.65 69.3093 1143.21 70.0559 1144.59 71.0799C1145.98 72.1039 1147.13 73.4119 1148.07 75.0026C1148.99 76.5946 1149.57 78.4933 1149.8 80.6906H1143.14C1142.77 78.1853 1141.81 76.3973 1140.27 75.3173C1138.74 74.2373 1136.87 73.6946 1134.67 73.6946C1132.44 73.6946 1130.58 74.1826 1129.1 75.1453C1127.62 76.1133 1126.43 77.3893 1125.52 78.9813C1124.61 80.5719 1123.97 82.3866 1123.59 84.4093C1123.21 86.4399 1123.02 88.4986 1123.02 90.5773C1123.02 92.7053 1123.21 94.7666 1123.59 96.7773C1123.97 98.7879 1124.61 100.583 1125.52 102.175C1126.43 103.767 1127.62 105.049 1129.1 106.012C1130.58 106.98 1132.44 107.461 1134.67 107.461C1136.87 107.461 1138.72 106.937 1140.22 105.869C1141.71 104.815 1142.77 102.86 1143.37 100.016H1150.03Z" fill="#818081"/>
<path d="M1192.32 112.069H1167.02C1166.42 112.069 1166.01 111.964 1165.8 111.754C1165.59 111.545 1165.48 111.137 1165.48 110.533V70.6288C1165.48 70.0182 1165.59 69.6115 1165.8 69.4022C1166.01 69.1982 1166.42 69.0928 1167.02 69.0928H1191.41V74.4915H1171.86V87.2288H1191.29V92.6248H1171.86V106.665H1192.32V112.069Z" fill="#818081"/>
<path d="M1233.53 111.785H1207.84C1207.23 111.785 1206.83 111.679 1206.62 111.47C1206.41 111.261 1206.3 110.854 1206.3 110.249V106.554C1207.21 105.685 1208.33 104.593 1209.66 103.285C1210.98 101.977 1212.38 100.558 1213.83 99.022C1215.29 97.486 1216.76 95.8767 1218.21 94.1927C1219.67 92.502 1220.98 90.8433 1222.13 89.214C1223.29 87.586 1224.23 86.0447 1224.95 84.582C1225.67 83.126 1226.03 81.8247 1226.03 80.69C1226.06 78.414 1225.5 76.7673 1224.33 75.7433C1223.15 74.7193 1221.57 74.2073 1219.61 74.2073C1217.67 74.2073 1216.13 74.8793 1214.97 76.2247C1213.81 77.5687 1213.24 79.5727 1213.24 82.226H1206.65C1206.65 80.1407 1206.99 78.2727 1207.67 76.6247C1208.35 74.978 1209.27 73.5713 1210.43 72.418C1211.58 71.258 1212.94 70.37 1214.52 69.7473C1216.09 69.118 1217.79 68.8087 1219.61 68.8087C1221.43 68.8087 1223.12 69.062 1224.69 69.574C1226.27 70.086 1227.64 70.826 1228.82 71.7887C1229.99 72.7567 1230.92 73.9607 1231.6 75.4033C1232.28 76.8407 1232.62 78.4687 1232.62 80.2887C1232.62 81.9607 1232.28 83.6447 1231.6 85.3473C1230.92 87.0553 1230.02 88.7393 1228.93 90.4113C1227.83 92.0767 1226.61 93.6993 1225.26 95.2727C1223.92 96.8447 1222.56 98.3193 1221.2 99.7073C1219.83 101.089 1218.55 102.347 1217.36 103.482C1216.16 104.623 1215.19 105.586 1214.43 106.382H1233.53V111.785Z" fill="#818081"/>
<path d="M1261.56 107.406C1263.3 107.406 1264.7 106.812 1265.76 105.616C1266.83 104.42 1267.62 102.964 1268.15 101.236C1268.68 99.5163 1269.03 97.6776 1269.21 95.7229C1269.37 93.7736 1269.46 92.0216 1269.46 90.4669C1269.46 89.4429 1269.44 88.3136 1269.37 87.0869C1269.32 85.8536 1269.19 84.6003 1268.98 83.3296C1268.77 82.0656 1268.49 80.8323 1268.15 79.6349C1267.81 78.4443 1267.35 77.3843 1266.76 76.4523C1266.17 75.5269 1265.45 74.7869 1264.6 74.2376C1263.75 73.6883 1262.73 73.4109 1261.56 73.4109C1260.39 73.4109 1259.39 73.6883 1258.57 74.2376C1257.76 74.7869 1257.07 75.5269 1256.5 76.4523C1255.93 77.3843 1255.48 78.4443 1255.16 79.6349C1254.84 80.8323 1254.59 82.0656 1254.43 83.3296C1254.26 84.6003 1254.14 85.8536 1254.08 87.0869C1254.03 88.3136 1254 89.4429 1254 90.4669C1254 91.4909 1254.03 92.6203 1254.08 93.8469C1254.14 95.0803 1254.26 96.3203 1254.43 97.5723C1254.59 98.8256 1254.84 100.046 1255.16 101.236C1255.48 102.434 1255.93 103.483 1256.5 104.395C1257.07 105.302 1257.76 106.036 1258.57 106.586C1259.39 107.134 1260.39 107.406 1261.56 107.406ZM1273.27 105.647C1272.21 107.807 1270.74 109.546 1268.86 110.872C1266.99 112.199 1264.55 112.864 1261.56 112.864C1258.6 112.864 1256.2 112.192 1254.36 110.847C1252.53 109.503 1251.09 107.758 1250.05 105.616C1249 103.476 1248.3 101.071 1247.94 98.3989C1247.58 95.7229 1247.4 93.0816 1247.4 90.4669C1247.4 87.8509 1247.58 85.2056 1247.94 82.5349C1248.3 79.8629 1248.99 77.4576 1250.02 75.3176C1251.04 73.1763 1252.48 71.4243 1254.34 70.0549C1256.2 68.6923 1258.6 68.0136 1261.56 68.0136C1264.55 68.0136 1266.99 68.6923 1268.86 70.0549C1270.74 71.4243 1272.21 73.1763 1273.27 75.3176C1274.33 77.4576 1275.06 79.8629 1275.46 82.5349C1275.86 85.2056 1276.05 87.8509 1276.05 90.4669C1276.05 93.0816 1275.86 95.7229 1275.46 98.3989C1275.06 101.071 1274.33 103.483 1273.27 105.647Z" fill="#818081"/>
<path d="M1302.66 107.406C1304.41 107.406 1305.81 106.812 1306.87 105.616C1307.93 104.42 1308.73 102.964 1309.26 101.236C1309.79 99.5163 1310.14 97.6776 1310.31 95.7229C1310.48 93.7736 1310.57 92.0216 1310.57 90.4669C1310.57 89.4429 1310.54 88.3136 1310.48 87.0869C1310.42 85.8536 1310.29 84.6003 1310.09 83.3296C1309.87 82.0656 1309.6 80.8323 1309.26 79.6349C1308.92 78.4443 1308.46 77.3843 1307.86 76.4523C1307.28 75.5269 1306.56 74.7869 1305.71 74.2376C1304.85 73.6883 1303.84 73.4109 1302.66 73.4109C1301.49 73.4109 1300.49 73.6883 1299.68 74.2376C1298.86 74.7869 1298.17 75.5269 1297.61 76.4523C1297.04 77.3843 1296.59 78.4443 1296.27 79.6349C1295.95 80.8323 1295.7 82.0656 1295.53 83.3296C1295.36 84.6003 1295.24 85.8536 1295.19 87.0869C1295.13 88.3136 1295.1 89.4429 1295.1 90.4669C1295.1 91.4909 1295.13 92.6203 1295.19 93.8469C1295.24 95.0803 1295.36 96.3203 1295.53 97.5723C1295.7 98.8256 1295.95 100.046 1296.27 101.236C1296.59 102.434 1297.04 103.483 1297.61 104.395C1298.17 105.302 1298.86 106.036 1299.68 106.586C1300.49 107.134 1301.49 107.406 1302.66 107.406ZM1314.38 105.647C1313.32 107.807 1311.85 109.546 1309.97 110.872C1308.09 112.199 1305.66 112.864 1302.66 112.864C1299.71 112.864 1297.31 112.192 1295.47 110.847C1293.63 109.503 1292.2 107.758 1291.15 105.616C1290.11 103.476 1289.41 101.071 1289.05 98.3989C1288.69 95.7229 1288.51 93.0816 1288.51 90.4669C1288.51 87.8509 1288.69 85.2056 1289.05 82.5349C1289.41 79.8629 1290.1 77.4576 1291.12 75.3176C1292.15 73.1763 1293.59 71.4243 1295.45 70.0549C1297.3 68.6923 1299.71 68.0136 1302.66 68.0136C1305.66 68.0136 1308.09 68.6923 1309.97 70.0549C1311.85 71.4243 1313.32 73.1763 1314.38 75.3176C1315.44 77.4576 1316.17 79.8629 1316.56 82.5349C1316.96 85.2056 1317.16 87.8509 1317.16 90.4669C1317.16 93.0816 1316.96 95.7229 1316.56 98.3989C1316.17 101.071 1315.44 103.483 1314.38 105.647Z" fill="#818081"/>
<path d="M1336.6 100.299C1337.02 102.803 1337.87 104.623 1339.16 105.758C1340.45 106.893 1342.12 107.461 1344.17 107.461C1346.32 107.461 1348.09 106.665 1349.45 105.073C1350.82 103.482 1351.5 101.157 1351.5 98.0848C1351.5 94.7848 1350.82 92.3915 1349.48 90.8928C1348.13 89.3941 1346.4 88.6475 1344.28 88.6475C1342.69 88.6475 1341.29 89.0541 1340.1 89.8688C1338.9 90.6821 1338.08 91.8301 1337.63 93.3102C1337.55 93.6128 1337.43 93.9461 1337.26 94.3035C1337.08 94.6608 1336.7 94.8461 1336.09 94.8461H1332.68C1332.08 94.8461 1331.67 94.7235 1331.46 94.4768C1331.25 94.2302 1331.14 93.8408 1331.14 93.3102L1331.77 71.3075C1331.77 70.7035 1331.87 70.2955 1332.08 70.0862C1332.29 69.8768 1332.7 69.7715 1333.3 69.7715H1355.82V75.1208H1338.02L1337.4 86.3715C1338.12 85.5008 1339.15 84.7915 1340.5 84.2435C1341.84 83.6942 1343.42 83.4168 1345.24 83.4168C1346.95 83.4168 1348.58 83.7302 1350.13 84.3542C1351.68 84.9835 1353.04 85.9022 1354.2 87.1115C1355.36 88.3262 1356.27 89.8501 1356.95 91.6888C1357.64 93.5261 1357.98 95.6422 1357.98 98.0288C1357.98 100.114 1357.64 102.057 1356.98 103.853C1356.32 105.653 1355.38 107.207 1354.17 108.515C1352.96 109.823 1351.5 110.854 1349.79 111.613C1348.09 112.371 1346.19 112.754 1344.1 112.754C1342.25 112.754 1340.51 112.489 1338.88 111.958C1337.24 111.421 1335.81 110.626 1334.56 109.565C1333.3 108.51 1332.3 107.207 1331.54 105.673C1330.79 104.137 1330.35 102.347 1330.24 100.299H1336.6Z" fill="#818081"/>
</g>
</g>
<defs>
<clipPath id="clip0_72_112">
<rect width="1530" height="500" fill="white"/>
</clipPath>
</defs>
</svg>
